# Blender v2.83.1 OBJ File: 'verybasicgun.blend'
# www.blender.org
mtllib verybasicgun.mtl
o Cube.001
v 0.109711 1.450468 0.278783
v 0.109711 1.293382 0.082708
v 0.109711 0.839207 0.768495
v 0.109711 0.682122 0.572420
v -0.109711 1.450468 0.278783
v -0.109711 1.293382 0.082708
v -0.109711 0.839207 0.768495
v -0.109711 0.682122 0.572420
vt 0.625000 0.500000
vt 0.875000 0.500000
vt 0.875000 0.750000
vt 0.625000 0.750000
vt 0.375000 0.750000
vt 0.625000 1.000000
vt 0.375000 1.000000
vt 0.375000 0.000000
vt 0.625000 0.000000
vt 0.625000 0.250000
vt 0.375000 0.250000
vt 0.125000 0.500000
vt 0.375000 0.500000
vt 0.125000 0.750000
vn 0.0000 0.6252 0.7804
vn 0.0000 -0.7804 0.6252
vn -1.0000 -0.0000 0.0000
vn 0.0000 -0.6252 -0.7804
vn 1.0000 0.0000 0.0000
vn 0.0000 0.7804 -0.6252
usemtl Material.001
s off
f 1/1/1 5/2/1 7/3/1 3/4/1
f 4/5/2 3/4/2 7/6/2 8/7/2
f 8/8/3 7/9/3 5/10/3 6/11/3
f 6/12/4 2/13/4 4/5/4 8/14/4
f 2/13/5 1/1/5 3/4/5 4/5/5
f 6/11/6 5/10/6 1/1/6 2/13/6
o Cube.002
v 0.052793 1.423301 -0.827847
v 0.052793 1.317714 -0.827847
v 0.052793 1.423301 -0.559650
v 0.052793 1.317714 -0.559650
v -0.052793 1.423301 -0.827847
v -0.052793 1.317714 -0.827847
v -0.052793 1.423301 -0.559650
v -0.052793 1.317714 -0.559650
vt 0.625000 0.500000
vt 0.875000 0.500000
vt 0.875000 0.750000
vt 0.625000 0.750000
vt 0.375000 0.750000
vt 0.625000 1.000000
vt 0.375000 1.000000
vt 0.375000 0.000000
vt 0.625000 0.000000
vt 0.625000 0.250000
vt 0.375000 0.250000
vt 0.125000 0.500000
vt 0.375000 0.500000
vt 0.125000 0.750000
vn 0.0000 1.0000 0.0000
vn 0.0000 0.0000 1.0000
vn -1.0000 0.0000 0.0000
vn 0.0000 -1.0000 0.0000
vn 1.0000 0.0000 0.0000
vn 0.0000 0.0000 -1.0000
usemtl Material.002
s off
f 9/15/7 13/16/7 15/17/7 11/18/7
f 12/19/8 11/18/8 15/20/8 16/21/8
f 16/22/9 15/23/9 13/24/9 14/25/9
f 14/26/10 10/27/10 12/19/10 16/28/10
f 10/27/11 9/15/11 11/18/11 12/19/11
f 14/25/12 13/24/12 9/15/12 10/27/12
o Cube.003
v 0.127535 1.498043 -0.623395
v 0.127535 1.242972 -0.623395
v 0.127535 1.498043 0.623395
v 0.127535 1.242972 0.623395
v -0.127535 1.498043 -0.623395
v -0.127535 1.242972 -0.623395
v -0.127535 1.498043 0.623395
v -0.127535 1.242972 0.623395
vt 0.625000 0.500000
vt 0.875000 0.500000
vt 0.875000 0.750000
vt 0.625000 0.750000
vt 0.375000 0.750000
vt 0.625000 1.000000
vt 0.375000 1.000000
vt 0.375000 0.000000
vt 0.625000 0.000000
vt 0.625000 0.250000
vt 0.375000 0.250000
vt 0.125000 0.500000
vt 0.375000 0.500000
vt 0.125000 0.750000
vn 0.0000 1.0000 0.0000
vn 0.0000 0.0000 1.0000
vn -1.0000 0.0000 0.0000
vn 0.0000 -1.0000 0.0000
vn 1.0000 0.0000 0.0000
vn 0.0000 0.0000 -1.0000
usemtl Material.003
s off
f 17/29/13 21/30/13 23/31/13 19/32/13
f 20/33/14 19/32/14 23/34/14 24/35/14
f 24/36/15 23/37/15 21/38/15 22/39/15
f 22/40/16 18/41/16 20/33/16 24/42/16
f 18/41/17 17/29/17 19/32/17 20/33/17
f 22/39/18 21/38/18 17/29/18 18/41/18
o Cube.004
v 0.079390 1.639774 0.116033
v 0.079390 1.480994 0.116033
v 0.069145 1.629529 0.162238
v 0.069145 1.491238 0.162238
v -0.079390 1.639774 0.116033
v -0.079390 1.480994 0.116033
v -0.069145 1.629529 0.162238
v -0.069145 1.491238 0.162238
v -0.079390 1.480994 0.162238
v -0.079390 1.639774 0.162238
v 0.079390 1.639774 0.162238
v 0.079390 1.480994 0.162238
vt 0.625000 0.500000
vt 0.875000 0.500000
vt 0.875000 0.750000
vt 0.625000 0.750000
vt 0.375000 0.000000
vt 0.625000 0.000000
vt 0.625000 0.250000
vt 0.375000 0.250000
vt 0.125000 0.500000
vt 0.375000 0.500000
vt 0.375000 0.750000
vt 0.125000 0.750000
vt 0.391130 0.983870
vt 0.608870 0.983870
vt 0.625000 1.000000
vt 0.375000 1.000000
vt 0.608870 0.766130
vt 0.391130 0.766130
vn 0.0000 1.0000 0.0000
vn -1.0000 0.0000 0.0000
vn 0.0000 -1.0000 0.0000
vn 1.0000 0.0000 0.0000
vn 0.0000 0.0000 1.0000
usemtl Material.004
s off
f 25/43/19 29/44/19 34/45/19 35/46/19
f 33/47/20 34/48/20 29/49/20 30/50/20
f 30/51/21 26/52/21 36/53/21 33/54/21
f 26/52/22 25/43/22 35/46/22 36/53/22
f 32/55/23 31/56/23 34/57/23 33/58/23
f 27/59/23 28/60/23 36/53/23 35/46/23
f 31/56/23 27/59/23 35/46/23 34/57/23
f 28/60/23 32/55/23 33/58/23 36/53/23
